<?xml version="1.0" encoding="UTF-8"?><svg id="Laag_1" xmlns="http://www.w3.org/2000/svg" viewBox="0 0 406.91 230.2"><defs><style>.cls-1{fill:#000;}.cls-1,.cls-2{stroke-width:0px;}.cls-2{fill:#1d1d1b;}</style></defs><path class="cls-2" d="M400.87,161.75c-9.68,4.73-19.6,9.06-29.73,12.68-17.22,6.15-34.31,12.28-50.64,20.8-20.43,10.66-41.76,11.22-62.79.57-1.42-.72-2.83-1.23-4.23-1.53-2.34-.53-4.64-.51-6.87.01-2.37.54-4.65,1.64-6.8,3.21-5.55,4.06-11.29,4.22-17.53,2.9-1.39-.3-2.77-.65-4.12-1.06-17.89,5.53-34.72,13.68-52.09,20.5-12.6,4.95-25.45,8.89-38.96,10.16-8.17.77-16.25-.58-24.11-2.87-1.36-.4-4.04-.35-3.64-2.48.43-2.31,2.92-1.53,4.68-1.54,2.66-.02,5.33-.01,7.99-.01,17.54.38,33.58-5.49,49.58-11.78,14.7-5.78,28.97-12.77,43.99-17.66-1.99-1.22-3.89-2.57-5.72-4.02-16.09,5.58-31.48,12.96-47.54,18.61-12.7,4.46-25.59,8.61-39.17,8.71-25.76.2-47.6-9.27-65.34-28.05-4.7-4.97-8.71-10.46-12.7-16.52,2.9-.53,3.47,1.66,4.6,2.87,14.55,15.6,31.37,27.3,53.05,30.31,12.28,1.71,24.16-.93,35.88-4.26,20.21-5.75,39.12-14.95,58.78-22.17.54-.2,1.09-.4,1.63-.59-5.58-7.35-9.57-15.92-11.41-24.88-5.28,2.22-10.56,4.44-15.89,6.54-12.6,4.94-25.45,8.89-38.96,10.16-8.17.76-16.25-.58-24.1-2.87-1.36-.4-4.05-.35-3.65-2.49.43-2.31,2.93-1.52,4.68-1.53,2.66-.02,5.33-.01,7.99-.01,17.54.38,33.58-5.49,49.59-11.78,6.45-2.54,12.83-5.31,19.22-8.04-.04-2.14.05-4.29.28-6.43-9.55,3.91-19.04,7.97-28.78,11.39-12.7,4.47-25.59,8.61-39.17,8.72-25.76.19-47.6-9.27-65.34-28.05-4.7-4.98-8.71-10.46-12.7-16.52,2.9-.53,3.47,1.66,4.6,2.87,14.55,15.6,31.37,27.3,53.05,30.31,12.28,1.71,24.16-.93,35.88-4.27,20.21-5.74,39.12-14.95,58.78-22.16,1.9-.7,3.8-1.37,5.71-2.01,2.42-.83,4.85-1.6,7.3-2.3,8.35-2.44,16.87-4.16,25.63-4.51,14.95-.6,28.96,2.65,41.51,10.64.63.31,1.27.64,1.9.97,1.43.75,3.91.55,5.46-.16,17.18-7.83,34.63-8.08,52.55-2.83,4.61,1.35,9.66,1.21,14.94,1.8-.63-7.19-1.5-13.27-1.64-19.36-.29-12.61-.38-25.23-.22-37.85.19-14.76-6.88-25.74-20.23-30.22-1.25,9.92-8.5,12.81-16.93,14.5-1.77.36-3.44,1.62-4.94,2.75-3.55,2.69-6.84,5.76-10.5,8.29-2.91,2.01-5.68,1.14-6.62-2.35-.99-3.69-1.3-7.56-2-11.94-.59-.1-2.41-.26-4.15-.72-3.1-.82-5.04-2.71-4.37-6.16.8-4.05,1.78-8.07,2.79-12.07.88-3.5,2.29-6.92,2.76-10.46.59-4.47,2.07-7.17,7.04-8.05,10.28-1.82,20.45-4.24,30.65-6.47,17.48-3.83,31.5,3.62,40.18,20.15,6.8,12.94,14.98,25.16,22.03,37.98,9.13,16.59,17.95,33.36,26.44,50.29,2.09,4.18,2.53,9.22,3.46,13.92,1.63,8.27,2.89,16.6,4.6,24.85,1.2,5.84-.04,10.85-5.62,13.57Z"/><path class="cls-1" d="M196.15,115.19c-2.45.7-4.88,1.47-7.3,2.3,1.27-.59,2.67-1.09,4.19-1.5,1.04-.28,2.08-.55,3.11-.8Z"/><path class="cls-2" d="M33.42,97.68c26.83,32.12,59.41,42.99,98.91,32.54-25.2,20.87-93.52-1.16-98.91-32.54Z"/><path class="cls-2" d="M34.41,59.26H13.41v14.61h19.3v10.87H13.41v23.12H0v-59.52h34.41v10.92Z"/><path class="cls-2" d="M56.03,107.86h-13.12v-62.92h13.12v62.92Z"/><path class="cls-2" d="M105.25,90.34h-27.72c.44,6.17,4.33,9.26,11.66,9.26,4.68,0,8.78-1.11,12.33-3.32v9.46c-3.93,2.1-9.03,3.15-15.31,3.15-6.86,0-12.19-1.9-15.98-5.71-3.79-3.8-5.69-9.11-5.69-15.92s2.05-12.64,6.14-16.77c4.09-4.12,9.13-6.18,15.11-6.18s10.99,1.84,14.38,5.52c3.39,3.68,5.08,8.67,5.08,14.98v5.52ZM93.09,82.29c0-6.09-2.46-9.13-7.39-9.13-2.1,0-3.92.87-5.46,2.61-1.54,1.74-2.47,3.92-2.8,6.52h15.65Z"/><path class="cls-2" d="M154.1,65.36l-14.03,20.59,13.95,21.91h-15.11l-6.14-11.46c-.5-.91-1.09-2.2-1.78-3.86h-.17c-.42,1.16-.98,2.41-1.7,3.74l-6.18,11.58h-15.07l14.36-21.17-13.49-21.33h15.19l6.06,11.91c.8,1.58,1.37,2.91,1.7,3.98h.17c.44-1.3,1.04-2.66,1.78-4.07l6.18-11.83h14.28Z"/><path class="cls-2" d="M187.72,54.98c-1.69-.66-3.31-1-4.86-1-4.21,0-6.31,2.28-6.31,6.85v4.52h9.71v9.67h-9.71v32.83h-13.07v-32.83h-7.14v-9.67h7.14v-5.27c0-4.84,1.58-8.74,4.73-11.7,3.15-2.96,7.44-4.44,12.87-4.44,2.66,0,4.87.28,6.64.83v10.21Z"/><path class="cls-2" d="M206.11,107.86h-13.12v-62.92h13.12v62.92Z"/><path class="cls-2" d="M237.4,108.89c-7.08,0-12.65-1.98-16.71-5.96-4.05-3.97-6.08-9.36-6.08-16.17s2.1-12.53,6.31-16.5c4.21-3.97,9.89-5.96,17.06-5.96s12.59,1.99,16.6,5.96c4.01,3.97,6.02,9.22,6.02,15.75,0,7.06-2.07,12.63-6.21,16.73-4.14,4.1-9.8,6.14-17,6.14ZM237.73,74.36c-3.1,0-5.51,1.07-7.22,3.2-1.72,2.13-2.57,5.15-2.57,9.05,0,8.16,3.29,12.24,9.88,12.24s9.42-4.19,9.42-12.58c0-7.94-3.17-11.91-9.5-11.91Z"/><path class="cls-2" d="M330.66,65.36l-12.24,42.5h-13.78l-6.27-24.9c-.42-1.66-.65-3.47-.71-5.44h-.25c-.19,2.16-.47,3.92-.83,5.27l-6.72,25.07h-13.61l-11.99-42.5h13.36l5.85,27.72c.28,1.3.48,2.88.62,4.73h.25c.14-1.94.39-3.57.75-4.9l7.3-27.56h12.49l6.56,27.72c.17.69.36,2.3.58,4.81h.29c.14-1.6.36-3.21.66-4.81l5.52-27.72h12.16Z"/><path class="cls-2" d="M253.48,194.27c-2.3-.09-4.59-.08-6.87.01,2.23-.52,4.53-.54,6.87-.01Z"/><path class="cls-2" d="M37.72,157.32c26.83,32.12,59.41,42.99,98.91,32.54-25.2,20.87-93.52-1.16-98.91-32.54Z"/></svg>